<?xml version="1.0" encoding="UTF-8" standalone="no"?>
<!-- Created with Inkscape (http://www.inkscape.org/) -->

<svg
   xmlns:dc="http://purl.org/dc/elements/1.1/"
   xmlns:cc="http://creativecommons.org/ns#"
   xmlns:rdf="http://www.w3.org/1999/02/22-rdf-syntax-ns#"
   xmlns:svg="http://www.w3.org/2000/svg"
   xmlns="http://www.w3.org/2000/svg"
   xmlns:sodipodi="http://sodipodi.sourceforge.net/DTD/sodipodi-0.dtd"
   xmlns:inkscape="http://www.inkscape.org/namespaces/inkscape"
   version="1.1"
   id="svg2"
   xml:space="preserve"
   width="1130.2"
   height="436.01334"
   viewBox="0 0 1130.2 436.01334"
   sodipodi:docname="BCID_H_cmyk_rev.svg"
   inkscape:version="0.92.5 (2060ec1f9f, 2020-04-08)"><metadata
     id="metadata8"><rdf:RDF><cc:Work
         rdf:about=""><dc:format>image/svg+xml</dc:format><dc:type
           rdf:resource="http://purl.org/dc/dcmitype/StillImage" /><dc:title></dc:title></cc:Work></rdf:RDF></metadata><defs
     id="defs6" /><sodipodi:namedview
     pagecolor="#ffffff"
     bordercolor="#666666"
     borderopacity="1"
     objecttolerance="10"
     gridtolerance="10"
     guidetolerance="10"
     inkscape:pageopacity="0"
     inkscape:pageshadow="2"
     inkscape:window-width="3103"
     inkscape:window-height="1545"
     id="namedview4"
     showgrid="false"
     inkscape:zoom="0.54126785"
     inkscape:cx="565.09998"
     inkscape:cy="218.00667"
     inkscape:window-x="132"
     inkscape:window-y="54"
     inkscape:window-maximized="0"
     inkscape:current-layer="g10" /><g
     id="g10"
     inkscape:groupmode="layer"
     inkscape:label="ink_ext_XXXXXX"
     transform="matrix(1.3333333,0,0,-1.3333333,0,436.01333)"><g
       id="g12"
       transform="scale(0.1)"><path
         d="M 7290.73,740.809 H 4148.87 v -38.098 h 3141.86 v 38.098"
         style="fill:#f9ae0c;fill-opacity:1;fill-rule:nonzero;stroke:none"
         id="path14"
         inkscape:connector-curvature="0" /><path
         d="m 7480.51,1307.28 c 1.67,3.95 7.43,23.42 14.13,23.42 5,0 11.61,-20.28 13.28,-23.42 l 56.51,-132.75 c 0,-1.52 5.86,-14.03 5.86,-17.17 0,-8.57 -19.18,-6.2 -24.17,-6.2 h -95.58 c -3.33,0 -29.92,-3.13 -29.92,4.65 0,2.37 1.66,7.06 2.47,9.38 z m 280.27,-338.389 c 4.84,-4.332 3.28,-16.2 -1.62,-18.371 -10.84,0.46 -2.88,0.769 -12.26,1.011 v -0.101 c -28.41,0.859 -56.77,2.832 -85.18,2.832 -22.31,0 -45.57,-1.871 -68.63,-2.672 0,0 -19.37,-0.758 -30.27,-1.16 -4.85,2.261 -6.56,13.968 -1.67,18.32 l 19.69,1.559 c 5.69,0.3 12.25,0.961 12.25,0.961 19.79,1.722 41.03,2.929 41.03,22.3 0,10.9 -7.32,27.91 -11.41,37.95 l -25.89,58.63 c -17.05,39.47 -11.39,39.47 -50.3,39.47 h -110.31 c -32.44,0 -27.55,-3.14 -39.66,-30.88 l -24.38,-57.99 c -4.84,-12.41 -11.39,-28.6 -11.39,-42.488 0,-20.782 23.5,-24.063 42.27,-26.133 0,0 7.02,-0.719 11.12,-1.02 l 20.38,-2.359 c 4.94,-4.352 3.28,-16.059 -1.58,-18.371 -10.84,0.453 -30.32,1.051 -30.32,1.051 -18.01,0.961 -35.97,2.832 -54.04,2.832 -21.4,0 -42.84,-2.731 -64.29,-2.973 0,0 -19.32,-0.769 -30.28,-1.059 -4.79,2.161 -6.55,13.872 -1.61,18.36 l 19.23,1.879 c 4.23,0.492 13.06,1.261 13.06,1.261 11.26,1.262 21.76,2.77 29.88,11.04 10.54,10.8 25.08,46.38 30.78,61.07 l 156.48,387.08 c 2.47,6.05 4.94,17.01 13.88,17.01 6.4,0 9.73,-10.2 11.35,-14.79 l 163.84,-387.79 c 11.77,-27.26 24.12,-65.659 55.97,-72.67 3.48,-0.598 7.06,-1.11 11.1,-1.571 l 2.78,-2.218"
         style="fill:#ffffff;fill-opacity:1;fill-rule:evenodd;stroke:none"
         id="path16"
         inkscape:connector-curvature="0" /><path
         d="m 7068.4,1326.35 c 0,77.97 -1.62,90.48 -48.49,94.22 l -19.94,1.47 c -4.74,2.93 -3.23,16.14 1.67,18.37 39.71,-1.37 66.76,-2.23 100.11,-2.23 31.9,0 58.84,0.86 98.61,2.23 4.84,-2.23 6.35,-15.44 1.61,-18.37 l -19.93,-1.47 c -46.88,-3.74 -48.39,-16.25 -48.39,-94.22 v -262.09 c 0,-77.998 1.51,-88.299 48.39,-93.44 l 19.93,-2.23 c 4.74,-2.981 3.23,-16.199 -1.61,-18.36 -39.77,1.36 -66.71,2.161 -98.61,2.161 -33.35,0 -60.4,-0.801 -100.11,-2.161 -4.9,2.161 -6.41,13.872 -1.67,18.36 l 19.94,2.23 c 46.87,5.141 48.49,15.442 48.49,93.44 v 262.09"
         style="fill:#ffffff;fill-opacity:1;fill-rule:nonzero;stroke:none"
         id="path18"
         inkscape:connector-curvature="0" /><path
         d="m 6657.14,1075.77 c 0,-26.79 1.72,-64.74 18.12,-81.09 16.4,-17.008 42.28,-20.789 68.07,-20.789 76.75,0 135.44,29.819 135.44,104.109 0,58.83 -34.47,127.15 -171.62,127.15 -46.58,0 -50.01,-4.38 -50.01,-19.37 z m 0,172.58 c 0,-20.89 0.8,-22.31 44.76,-20.89 88.01,2.98 135.44,25.28 135.44,95.12 0,72.87 -62.98,100.51 -128.48,100.51 -18.97,0 -31.94,-1.56 -39.7,-4.54 -8.59,-2.17 -12.02,-5.95 -12.02,-19.37 z m -70.75,98.75 c 0,55.1 -3.52,69.28 -42.28,72.26 l -27.6,2.68 c -3.13,2.77 -4.85,17.76 0.86,18.06 46.57,3.59 105.2,5.9 185.49,5.9 54.29,0 106.01,-3.68 144.82,-20.74 37.09,-15.58 65.55,-45.36 65.55,-92.94 0,-53.54 -36.18,-81.04 -87.9,-101.88 0,-7.43 6.86,-9.75 16.39,-11.11 46.59,-7.52 115.51,-44.65 115.51,-124.19 0,-86.28 -74.18,-144.308 -229.44,-144.308 -24.93,0 -67.22,2.207 -103.5,2.207 -37.9,0 -67.26,-1.449 -99.1,-2.207 -5.3,2.207 -6.97,14.18 -1.77,18.566 l 15.49,2.332 c 45.76,6.602 47.48,14.829 47.48,92.84 v 282.53"
         style="fill:#ffffff;fill-opacity:1;fill-rule:nonzero;stroke:none"
         id="path20"
         inkscape:connector-curvature="0" /><path
         d="m 6433.04,970.961 c -4.08,0.449 -11.71,0.961 -11.71,0.961 -8.37,0.91 -15.94,2.117 -21.84,8.59 -10.3,10.84 -9.45,42.228 -9.45,54.738 v 322.5 c 0,14.18 -3.42,44.61 6.82,55.51 5.21,5.75 15.95,6.71 25.44,7.31 v 0 c 5.9,0.46 5.95,0.46 11.09,0.61 l 20.49,1.61 c 4.8,2.98 3.28,16.25 -1.66,18.37 -10.91,-0.46 -20.79,-0.3 -30.38,-0.61 v 0 h -86.8 c -9.43,0 -18.01,0 -23.2,-10.08 l -177.02,-368.72 -156.33,356.2 c -5.14,12.52 -6,22.6 -22.3,22.6 h -90.43 c -9.48,0.31 -19.83,0.15 -30.78,0.61 -4.9,-2.12 -6.51,-15.39 -1.62,-18.37 l 20.49,-1.61 c 4.18,-0.3 11.81,-0.75 11.81,-0.75 33.86,-2.18 35.98,-9.8 32.9,-45.37 l -26.64,-346.07 c -2.37,-34.81 -4.19,-53.181 -40.58,-56.459 0,0 -7.71,-1.011 -11.9,-1.422 L 5799,968.75 c -4.89,-4.352 -3.28,-16.059 1.61,-18.23 10.8,0.312 29.92,0.91 29.92,0.91 18.48,0.961 37.25,2.531 56.02,2.531 20.29,0 40.62,-1.859 60.91,-2.672 v -0.16 c 9.33,-0.199 19.32,-0.609 30.22,-0.899 4.95,2.161 6.56,14.032 1.61,18.36 l -20.43,2.23 c -5.35,0.45 -11.35,1 -11.35,1 -52.53,3.692 -51.32,40.63 -48.09,86.04 l 24.87,321.79 h 6.16 l 169.19,-396.021 c 1.72,-5.5 4.29,-14.879 12.88,-14.879 7.77,0 10.29,8.57 12.96,14.02 l 190.6,406.31 h 6.1 v -353.83 c 0,-14.08 1.72,-43.039 -12.92,-53.988 -7.61,-5.614 -32.5,-9.043 -32.5,-9.043 -3.38,-0.489 -6.91,-1.11 -11.04,-1.399 l -20.39,-2.23 c -4.89,-4.488 -3.28,-16.199 1.61,-18.36 10.8,0.29 29.82,0.899 29.82,0.899 27.81,0.762 55.86,2.832 84.03,2.832 20.28,0 59.89,-1.859 59.89,-1.859 9.43,-0.36 20.23,-1.422 31.13,-1.723 4.9,2.172 6.56,13.883 1.67,18.371 l -20.44,2.211"
         style="fill:#ffffff;fill-opacity:1;fill-rule:nonzero;stroke:none"
         id="path22"
         inkscape:connector-curvature="0" /><path
         d="m 5679.41,1255.21 c 0,45.72 -1.61,130.3 -14.94,152.39 -5.45,8.78 -19.47,14.03 -39.01,15.49 l -19.48,1.37 c -4.69,5.15 -3.12,14.88 1.57,17.81 29.67,-1.57 58.59,-2.32 89.01,-2.32 32.75,0 53.8,0.75 81.9,2.23 6.2,-3.65 5.45,-13.18 1.52,-17.72 l -18.68,-1.37 c -19.53,-1.46 -34.31,-8.12 -39,-17.6 -10.95,-24.38 -10.95,-109.1 -10.95,-150.28 v -83.16 c 0,-64.08 -10.91,-131.81 -54.61,-176.011 -33.6,-34.617 -91.32,-53.641 -149.05,-53.641 -53.9,0 -107.73,9.493 -145.94,40.372 -41.37,32.5 -60.86,86.19 -60.86,173.84 v 173.63 c 0,76.61 -1.56,89.12 -46.77,92.85 l -19.52,1.37 c -4.7,2.98 -3.24,15.49 1.45,17.81 39.11,-1.57 65.65,-2.32 96.84,-2.32 31.99,0 57.73,0.75 95.92,2.23 4.7,-2.23 6.26,-14.74 1.58,-17.72 l -18.72,-1.37 c -45.27,-3.73 -46.79,-16.24 -46.79,-92.85 V 1171.3 c 0,-118.59 39.01,-196.609 158.4,-196.609 113.13,0 156.13,83.919 156.13,195.799 v 84.72"
         style="fill:#ffffff;fill-opacity:1;fill-rule:nonzero;stroke:none"
         id="path24"
         inkscape:connector-curvature="0" /><path
         d="m 4898.98,1327.72 c 0,77.46 -1.62,89.11 -52.64,92.85 l -20.18,1.47 c -4.94,2.93 -3.33,16.14 1.51,18.37 45.42,-1.37 72.92,-2.23 105.31,-2.23 31.64,0 59.14,0.86 99.67,2.23 4.85,-2.23 6.46,-15.44 1.61,-18.37 l -19.53,-1.47 c -47.73,-3.74 -49.35,-15.39 -49.35,-92.85 v -256.14 c 0,-46.37 2.42,-65.5 17.01,-79.369 8.87,-8.129 24.22,-17.012 88.26,-17.012 68.88,0 85.88,2.93 98.8,9.481 16.25,8.89 37.28,35.43 53.44,73.02 4.89,3.59 20.28,0.61 20.28,-4.54 0,-8.12 -22.71,-83.148 -34.01,-102.93 -41.38,1.36 -118.28,2.161 -201.65,2.161 h -74.53 c -34,0 -59.89,-0.801 -105.31,-2.161 -4.84,2.161 -6.45,13.872 -1.51,18.36 l 24.27,2.23 c 46.93,4.379 48.55,14.629 48.55,91.93 v 264.97"
         style="fill:#ffffff;fill-opacity:1;fill-rule:nonzero;stroke:none"
         id="path26"
         inkscape:connector-curvature="0" /><path
         d="m 4729.93,1176.44 c 0,121.51 -56.36,252.56 -204.07,252.56 -80.43,0 -184.68,-52.23 -184.68,-213.55 0,-108.95 55.6,-250.29 207.9,-250.29 92.8,0 180.85,66.25 180.85,211.28 z m -466.06,15.44 c 0,147.25 115.91,259.93 275.22,259.93 178.42,0 268.2,-122.93 268.2,-252.61 0,-148.7 -119.04,-256.802 -268.2,-256.802 -171.62,0 -275.22,116.972 -275.22,249.482"
         style="fill:#ffffff;fill-opacity:1;fill-rule:nonzero;stroke:none"
         id="path28"
         inkscape:connector-curvature="0" /><path
         d="m 3776.02,1479.41 c 65.09,50.71 148.05,75.54 240.9,75.54 48.09,0 115.9,-9.74 157.84,-21.34 10.69,-2.72 16.95,-4.44 24.98,-3.49 0.86,-20.44 5.29,-76.45 12.51,-130.75 -4.54,-6.25 -17.91,-7.01 -24.12,-1.71 -13.37,60.35 -53.54,129.79 -182.87,129.79 -136.45,0 -252.41,-86.29 -252.41,-270.22 0,-186.75 118.59,-289.851 264.87,-289.851 115.1,0 165.97,74.691 186.46,127.161 6.25,4.49 19.58,2.63 23.15,-3.58 -6.2,-46.22 -29.41,-104.858 -42.83,-121.71 -10.65,-1.871 -21.35,-5.301 -31.19,-8.93 -19.58,-7.172 -83.86,-20.441 -140.94,-20.441 -80.28,0 -156.93,15.953 -222.13,59.601 -71.35,48.9 -126.55,129.68 -126.55,244.37 0,98.71 44.5,183.13 112.33,235.56"
         style="fill:#ffffff;fill-opacity:1;fill-rule:nonzero;stroke:none"
         id="path30"
         inkscape:connector-curvature="0" /><path
         d="m 6890.62,1881.18 c -37.99,0 -39.56,-1.47 -39.56,-23.57 v -103.79 c 0,-77.36 3.89,-87.6 48.29,-92.04 l 23.02,-2.22 c 4.69,-2.98 3.12,-16.15 -1.62,-18.42 -42.74,1.51 -69.69,2.27 -100.57,2.27 -34.11,0 -61,-1.46 -91.89,-2.27 -4.79,2.27 -6.41,14.02 -1.66,18.42 l 13.52,2.22 c 44.41,7.36 45.92,14.68 45.92,92.04 v 265.02 c 0,77.3 -5.5,89.77 -46.73,92.74 l -20.58,1.47 c -4.75,2.98 -3.24,16.25 1.56,18.42 38.86,-0.75 65.75,-2.17 99.86,-2.17 30.88,0 57.83,0.71 91.9,2.17 4.68,-2.17 6.29,-15.44 1.55,-18.42 l -15.08,-1.47 c -45.92,-4.38 -47.49,-15.44 -47.49,-92.74 v -84.62 c 0,-22.87 1.57,-23.57 39.56,-23.57 h 226.63 c 37.99,0 39.61,0.7 39.61,23.57 v 84.62 c 0,77.3 -1.62,88.36 -48.35,92.74 l -15.09,1.47 c -4.74,2.98 -3.22,16.25 1.67,18.42 36.39,-1.46 63.33,-2.17 95.77,-2.17 30.88,0 57.89,0.71 93.46,2.17 4.85,-2.17 6.41,-15.44 1.67,-18.42 l -16.61,-1.47 c -45.97,-4.38 -47.64,-15.44 -47.64,-92.74 v -265.02 c 0,-77.36 1.67,-86.89 47.64,-92.04 l 18.98,-2.22 c 4.69,-2.98 3.13,-16.15 -1.62,-18.42 -37.99,1.51 -65,2.27 -95.88,2.27 -32.44,0 -61,-0.76 -95.77,-2.27 -4.89,2.27 -6.41,14.02 -1.67,18.42 l 15.09,2.22 c 48.35,7.36 48.35,14.68 48.35,92.04 v 103.79 c 0,22.1 -1.62,23.57 -39.61,23.57 h -226.63"
         style="fill:#ffffff;fill-opacity:1;fill-rule:nonzero;stroke:none"
         id="path32"
         inkscape:connector-curvature="0" /><path
         d="m 6453.37,1633.62 c -72.91,0 -119.03,19.18 -135.48,27.25 -10.49,16.2 -21.74,68.42 -23.51,103.09 4.39,5.15 17.4,6.61 20.94,2.17 13.02,-37.54 48.59,-109.71 149.36,-109.71 72.97,0 108.6,40.53 108.6,84.73 0,32.35 -7.78,68.43 -71.2,103.04 l -82.56,45.67 c -43.4,24.27 -93.81,66.26 -93.81,126.61 0,69.89 64.24,126.66 177.17,126.66 26.95,0 58.24,-4.49 80.74,-9.64 11.36,-2.93 23.51,-4.39 30.43,-4.39 7.82,-17.67 15.69,-58.89 15.69,-89.83 -3.53,-4.38 -17.35,-6.66 -21.75,-2.16 -11.26,35.27 -34.71,83.1 -118.12,83.1 -85.19,0 -103.35,-47.83 -103.35,-81.64 0,-42.74 41.68,-73.63 73.77,-90.58 l 69.54,-36.79 c 54.8,-28.76 108.59,-71.45 108.59,-141.38 0,-80.99 -72.11,-136.2 -185.05,-136.2"
         style="fill:#ffffff;fill-opacity:1;fill-rule:nonzero;stroke:none"
         id="path34"
         inkscape:connector-curvature="0" /><path
         d="m 6087.23,2017.38 c 0,78.01 -1.66,90.52 -49.85,94.2 l -20.44,1.47 c -4.89,2.98 -3.27,16.25 1.62,18.42 40.87,-1.46 68.67,-2.17 102.99,-2.17 32.64,0 60.45,0.71 101.27,2.17 5,-2.17 6.61,-15.44 1.72,-18.42 l -20.49,-1.47 c -48.19,-3.68 -49.86,-16.19 -49.86,-94.2 v -262.1 c 0,-78.01 1.67,-88.35 49.86,-93.5 l 20.49,-2.22 c 4.89,-2.98 3.28,-16.15 -1.72,-18.42 -40.82,1.51 -68.63,2.27 -101.27,2.27 -34.32,0 -62.12,-0.76 -102.99,-2.27 -4.89,2.27 -6.51,14.02 -1.62,18.42 l 20.44,2.22 c 48.19,5.15 49.85,15.49 49.85,93.5 v 262.1"
         style="fill:#ffffff;fill-opacity:1;fill-rule:nonzero;stroke:none"
         id="path36"
         inkscape:connector-curvature="0" /><path
         d="m 5759.03,1753.82 c 0,-77.36 1.57,-88.31 45.93,-92.04 l 24.52,-2.22 c 4.59,-2.98 3.12,-16.15 -1.47,-18.42 -43.69,1.51 -69.68,2.27 -100.31,2.27 -30.68,0 -57.43,-0.76 -106.42,-2.27 -4.59,2.27 -6.16,14.79 0,18.42 l 27.5,2.22 c 43.75,3.73 47.49,14.68 47.49,92.04 v 329.06 c 0,22.85 0,23.56 -22.97,23.56 h -42.13 c -32.9,0 -75.04,-1.46 -94.16,-18.42 -18.32,-16.2 -26.05,-32.34 -34.42,-50.76 -6.1,-4.45 -16.8,-0.76 -19.93,5.14 12.21,33.16 23.71,80.24 29.06,109.65 2.38,1.52 12.27,2.22 14.64,0 4.54,-23.56 29.77,-22.75 65.04,-22.75 h 310.09 c 41.38,0 48.18,1.42 59.69,20.59 3.88,1.46 12.31,0.7 13.78,-2.17 -8.43,-30.23 -13.78,-89.88 -11.51,-111.98 -3.07,-5.85 -15.99,-5.85 -19.83,-1.46 -2.37,18.42 -7.72,45.66 -19.23,53.74 -17.55,12.56 -46.62,18.42 -88.76,18.42 h -54.35 c -22.95,0 -22.25,-0.71 -22.25,-25.03 v -327.59"
         style="fill:#ffffff;fill-opacity:1;fill-rule:nonzero;stroke:none"
         id="path38"
         inkscape:connector-curvature="0" /><path
         d="m 5305.75,2017.38 c 0,78.01 -1.67,90.52 -49.87,94.2 l -20.43,1.47 c -4.95,2.98 -3.33,16.25 1.66,18.42 40.83,-1.46 68.64,-2.17 102.94,-2.17 32.7,0 60.45,0.71 101.28,2.17 5,-2.17 6.52,-15.44 1.72,-18.42 l -20.49,-1.47 c -48.19,-3.68 -49.81,-16.19 -49.81,-94.2 v -262.1 c 0,-78.01 1.62,-88.35 49.81,-93.5 l 20.49,-2.22 c 4.8,-2.98 3.28,-16.15 -1.72,-18.42 -40.83,1.51 -68.58,2.27 -101.28,2.27 -34.3,0 -62.11,-0.76 -102.94,-2.27 -4.99,2.27 -6.61,14.02 -1.66,18.42 l 20.43,2.22 c 48.2,5.15 49.87,15.49 49.87,93.5 v 262.1"
         style="fill:#ffffff;fill-opacity:1;fill-rule:nonzero;stroke:none"
         id="path40"
         inkscape:connector-curvature="0" /><path
         d="m 4838.47,2056.89 c 0,55.2 1.66,63.12 68.02,63.12 77.67,0 125.65,-39.46 125.65,-112.02 0,-31.54 -11.3,-60.75 -40.16,-80.43 -33.11,-22.91 -68.88,-26.04 -109.05,-26.04 -14.84,0 -44.46,-5.55 -44.46,14.12 z m 342.28,-397.33 c 4.95,-4.4 3.28,-16.15 -1.56,-18.42 -10.95,0.41 -20.74,0.7 -30.08,1.01 h -74.33 c -17.46,0 -22.66,14.98 -29.57,26.84 l -85.53,153.85 c -31.43,55.16 -30.58,61.52 -96.83,61.52 -7.06,0 -14.89,0.81 -19.23,-3.99 -5.25,-5.49 -4.4,-24.42 -4.4,-31.48 v -121.56 c 0,-47.34 -2.96,-61.11 45.98,-64.39 0,0 7.27,-0.71 11.46,-1.12 l 20.63,-1.91 c 5,-4.44 3.28,-16.25 -1.61,-18.42 -10.9,0.35 -20.84,0.66 -30.27,0.96 v 0 c -26.5,0.81 -52.29,2.93 -79.33,2.93 -26.8,0 -53.64,-2.12 -80.54,-2.93 0,0 -19.28,-0.7 -30.22,-1.16 -4.89,2.27 -6.52,14.08 -1.62,18.47 l 20.53,2.06 c 4.19,0.46 11.57,1.27 11.57,1.27 48.54,4.29 44.5,18.11 44.5,64.24 v 322.69 c 0,50.47 2.32,61.47 -56.61,64.79 -16.51,0.91 -21.91,-2.67 -21.91,10.15 0,8.63 0.16,11.8 15.7,11.8 27.95,0 61.15,-1.3 89.01,-1.3 50.61,0 95.98,1.3 145.73,1.3 82.85,0 164.9,-37.04 164.9,-119.89 0,-71.8 -65.44,-113.59 -137.91,-122.27 27.91,-3.93 41.03,-31.53 53.25,-52.02 l 70.64,-123.08 c 14.08,-24.77 26.04,-51.37 56.01,-56.66 3.43,-0.56 7.17,-1.06 11.26,-1.47 l 20.38,-1.81"
         style="fill:#ffffff;fill-opacity:1;fill-rule:evenodd;stroke:none"
         id="path42"
         inkscape:connector-curvature="0" /><path
         d="m 4307.83,1787.62 c 0,-31.03 1.91,-74.98 20.18,-93.96 18.06,-19.82 46.78,-24.11 75.49,-24.11 85.18,0 150.22,34.46 150.22,120.7 0,68.02 -38.3,147.35 -190.34,147.35 -51.71,0 -55.55,-5.2 -55.55,-22.41 z m 0,199.98 c 0,-24.17 0.95,-25.88 49.8,-24.17 97.48,3.44 150.17,29.32 150.17,110.31 0,84.48 -69.84,116.41 -142.5,116.41 -21.1,0 -35.48,-1.72 -44.05,-5.19 -9.58,-2.62 -13.42,-6.92 -13.42,-22.4 z m -78.42,114.65 c 0,63.73 -4.44,80.64 -47.59,84.07 l -29.92,2.11 c -4.89,3.85 -3.48,21.15 0.96,21.51 51.62,4.64 116.76,6.91 205.68,6.91 60.24,0 117.67,-4.29 160.71,-24.12 41.23,-18.11 72.72,-52.58 72.72,-107.74 0,-62.12 -40.22,-93.96 -97.54,-118.12 0,-8.59 7.67,-11.16 18.11,-12.92 51.72,-8.59 128.23,-51.67 128.23,-143.92 0,-100.01 -82.31,-167.23 -254.43,-167.23 -27.8,0 -74.67,2.63 -114.8,2.63 -42.13,0 -74.63,-1.77 -110,-2.63 -5.81,2.63 -7.67,16.35 -1.97,21.6 l 17.2,2.57 c 50.72,7.72 52.64,17.26 52.64,107.74 v 327.54"
         style="fill:#ffffff;fill-opacity:1;fill-rule:nonzero;stroke:none"
         id="path44"
         inkscape:connector-curvature="0" /><path
         d="m 1096.33,1007.29 c 446.38,0 1063.82,-251.341 1511.76,-251.341 319.72,0 631.67,85.34 809.25,210.981 12.46,73.77 19.02,149.61 19.02,226.82 0,750.15 -608.16,1358.31 -1358.36,1358.31 -750.21,0 -1358.359,-608.16 -1358.359,-1358.31 0,-76.45 6.504,-151.38 18.562,-224.199 49.004,9.031 215.469,37.739 358.127,37.739"
         style="fill:#ffffff;fill-opacity:1;fill-rule:nonzero;stroke:none"
         id="path46"
         inkscape:connector-curvature="0" /><path
         d="m 2955.52,1507.82 53.74,-22.31 119.14,83.11 z"
         style="fill:#f9ae0c;fill-opacity:1;fill-rule:nonzero;stroke:none"
         id="path48"
         inkscape:connector-curvature="0" /><path
         d="m 954.18,1600.62 -141.192,49.6 7.114,17.31 158.957,-52.98 0.703,0.35 20.998,11.91 8.37,5.19 -173.384,73.83 7.266,18.11 387.038,-156.47 12.77,5.29 -383.757,186.96 8.574,17.61 406.663,-189.28 5.6,2.88 -394.349,223.64 8.125,16.76 569.454,-309.78 c 4.59,8.57 14.48,24.32 19.43,32.7 -216.53,203.55 -425.44,356.4 -425.44,356.4 0,0 214.86,-143.91 480.09,-277.64 8.73,10.95 15.84,19.68 25.23,30.08 l -485.74,427.65 13.02,13.43 392.08,-334.21 -363.22,363.78 13.58,14.13 407.82,-394.15 -379.67,421.35 14.59,13.07 350.9,-375.74 -320.27,403.54 13.77,12.52 410.45,-499.57 c 10.65,9.13 19.43,16.1 30.48,24.63 -124.08,268.65 -259.78,487.24 -259.78,487.24 0,0 144.33,-212.43 339.15,-434.92 11.91,6.67 23.97,13.07 36.29,19.08 l -2.07,1.41 -287.63,574.1 17.06,7.57 238.32,-456.73 -200.53,473.33 17.92,7.97 230.5,-518.19 -194.18,532.87 18.37,6.72 184.54,-479.84 -145.73,494.17 17.51,6.4 191.85,-612.79 -0.3,-1.61 0.46,0.14 c 12.71,4.29 25.78,8.07 38.8,11.61 -14.58,294.39 -58.23,546.19 -58.23,546.19 0,0 53.94,-249.63 150.67,-527.87 13.43,1.61 26.95,3.03 40.62,3.98 l -0.4,0.61 h 1.67 l -0.96,1.41 -51.73,640.15 18.78,0.5 49.86,-512.73 -8.59,514.05 19.53,0.65 19.64,-566.78 19.52,566.78 19.58,-0.65 -8.58,-514.05 49.91,512.73 18.67,-0.5 -51.62,-640.15 -1.06,-1.41 h 0.35 l -0.15,-0.21 h 0.86 c 13.32,-0.86 26.58,-2.16 39.76,-3.73 96.48,277.99 150.27,527.22 150.27,527.22 0,0 -43.34,-251.1 -58.08,-544.88 13.27,-3.48 26.29,-7.32 39.16,-11.51 l 191.2,610.69 17.56,-6.46 -145.89,-494.12 184.64,479.83 18.37,-6.71 -194.18,-532.91 230.51,518.23 17.87,-7.97 -200.59,-473.33 238.43,456.73 17.06,-7.57 -286.67,-572.08 0.55,-0.2 c 11.81,-5.71 23.31,-11.86 34.77,-18.22 193.87,221.77 337.38,433 337.38,433 0,0 -134.58,-217.08 -258.46,-484.47 11.05,-8.33 21.9,-17 32.4,-25.99 l 405.7,494.17 13.83,-12.57 -320.28,-403.48 350.86,375.73 14.53,-13.12 -379.67,-421.35 407.83,394.1 13.63,-14.03 -363.27,-363.77 392.13,334.15 12.96,-13.42 -479.83,-422.87 0.31,-0.25 c 8.32,-9.33 16.44,-18.97 24.37,-28.7 263.51,133.21 476.35,275.76 476.35,275.76 0,0 -206.84,-151.33 -422.21,-353.43 5.91,-9.84 15.39,-26.65 20.89,-36.78 l 561.33,305.64 8.12,-16.81 -448.14,-254.17 466.16,216.88 8.53,-17.56 -434.12,-211.53 8.28,-2.97 441.74,178.68 7.36,-18.07 -410.6,-174.64 7.67,-3.29 273.65,91.24 41.18,28.81 13.72,-10.44 90.02,30.02 7.12,-17.26 -77.97,-27.45 112.58,-85.88 36.04,-20.09 C 3271.25,2116.43 2727.23,2566.14 2078,2566.14 c -660.69,0 -1212.383,-465.65 -1345.293,-1086.58 1.766,0.76 3.379,1.57 5.145,2.43 l 16.402,7.36 10.191,4.9 189.735,106.37"
         style="fill:#f9ae0c;fill-opacity:1;fill-rule:nonzero;stroke:none"
         id="path50"
         inkscape:connector-curvature="0" /><path
         d="m 724.984,940.039 c 0,0 202.903,40.609 372.346,40.609 446.39,0 1063.73,-251.347 1511.82,-251.347 328.66,0 649.19,90.179 823.83,221.679 13.67,77.71 20.84,157.74 20.84,239.34 0,110.61 -13.12,218.09 -37.84,321.23 l -186.77,104.16 -219.09,-153.6 -147.45,57.42 c -49.91,-25.28 -357.82,-231.27 -357.82,-231.27 l -118.18,85.58 -126.71,25.03 -169.09,123.13 -193.93,-133.07 c 0,0 -216.42,-125.65 -223.79,-125.65 -7.47,0 -261.13,200.99 -261.13,200.99 L 1295.2,1587.4 c -19.84,-12.52 -99.32,-48.99 -99.32,-48.99 l -4.13,-1.12 -76.95,23.76 -93.26,49.56 -283.688,-128.62 c -1.766,-0.86 -3.379,-1.67 -5.145,-2.43 -19.937,-93.3 -30.527,-190.03 -30.527,-289.24 0,-85.43 7.871,-169.09 22.804,-250.281"
         style="fill:#4a5491;fill-opacity:1;fill-rule:nonzero;stroke:none"
         id="path52"
         inkscape:connector-curvature="0" /></g></g></svg>